<svg width="46" height="44" viewBox="0 0 46 44" fill="none" xmlns="http://www.w3.org/2000/svg">
<path d="M33.125 20.625H32.75V18C32.75 17.3906 32.2344 16.875 31.625 16.875H30.875V9.75H28.625V16.875H26.375V9.75H24.125V16.875H21.875V9.75H19.625V16.875H17.375V9.75H15.125V16.875H14.375C13.7188 16.875 13.25 17.3906 13.25 18V20.625H12.875C12.2188 20.625 11.75 21.1406 11.75 21.75V22.5C11.75 22.7344 11.8906 22.875 12.125 22.875H33.875C34.0625 22.875 34.25 22.7344 34.25 22.5V21.75C34.25 21.1406 33.7344 20.625 33.125 20.625ZM30.5 20.625H15.5V19.125H30.5V20.625ZM33.875 5.53125L23.7031 1.26562C23.4688 1.17188 23.2344 1.17188 23 1.17188C22.7188 1.17188 22.4844 1.17188 22.25 1.26562L12.0781 5.53125C11.8906 5.57812 11.75 5.8125 11.75 6.04688V7.3125C11.75 7.64062 11.9844 7.875 12.3125 7.875H13.25V8.4375C13.25 8.76562 13.4844 9 13.8125 9H32.1875C32.4688 9 32.75 8.76562 32.75 8.4375V7.875H33.6875C33.9688 7.875 34.25 7.64062 34.25 7.3125V6.04688C34.25 5.8125 34.0625 5.57812 33.875 5.53125ZM14 6.75L23 3.375L32 6.75H14Z" fill="#4BB45E"/>
<path d="M1.74 40C1.64 40 1.56 39.97 1.5 39.91C1.44 39.85 1.41 39.77 1.41 39.67V29.845C1.41 29.745 1.44 29.665 1.5 29.605C1.56 29.535 1.64 29.5 1.74 29.5H2.01C2.12 29.5 2.205 29.53 2.265 29.59C2.325 29.65 2.355 29.735 2.355 29.845V34.225H8.145V29.845C8.145 29.745 8.175 29.665 8.235 29.605C8.295 29.535 8.375 29.5 8.475 29.5H8.745C8.855 29.5 8.94 29.53 9 29.59C9.06 29.65 9.09 29.735 9.09 29.845V39.67C9.09 39.77 9.055 39.85 8.985 39.91C8.925 39.97 8.845 40 8.745 40H8.475C8.375 40 8.295 39.97 8.235 39.91C8.175 39.85 8.145 39.77 8.145 39.67V35.125H2.355V39.67C2.355 39.77 2.32 39.85 2.25 39.91C2.19 39.97 2.11 40 2.01 40H1.74ZM13.8179 40.15C13.3379 40.15 12.8929 40.05 12.4829 39.85C12.0729 39.65 11.7429 39.38 11.4929 39.04C11.2529 38.7 11.1329 38.325 11.1329 37.915C11.1329 37.255 11.3979 36.715 11.9279 36.295C12.4679 35.875 13.1929 35.605 14.1029 35.485L16.4729 35.155V34.63C16.4729 34.08 16.3029 33.66 15.9629 33.37C15.6329 33.07 15.1229 32.92 14.4329 32.92C13.9229 32.92 13.5029 33.02 13.1729 33.22C12.8529 33.42 12.6479 33.66 12.5579 33.94C12.5179 34.06 12.4679 34.145 12.4079 34.195C12.3579 34.235 12.2879 34.255 12.1979 34.255H11.9879C11.8979 34.255 11.8179 34.225 11.7479 34.165C11.6879 34.095 11.6579 34.015 11.6579 33.925C11.6579 33.705 11.7579 33.45 11.9579 33.16C12.1579 32.86 12.4679 32.6 12.8879 32.38C13.3079 32.16 13.8229 32.05 14.4329 32.05C15.5029 32.05 16.2629 32.305 16.7129 32.815C17.1629 33.325 17.3879 33.945 17.3879 34.675V39.67C17.3879 39.77 17.3579 39.85 17.2979 39.91C17.2379 39.97 17.1579 40 17.0579 40H16.8029C16.7029 40 16.6229 39.97 16.5629 39.91C16.5029 39.85 16.4729 39.77 16.4729 39.67V38.965C16.2529 39.295 15.9279 39.575 15.4979 39.805C15.0779 40.035 14.5179 40.15 13.8179 40.15ZM13.9679 39.28C14.6979 39.28 15.2979 39.04 15.7679 38.56C16.2379 38.08 16.4729 37.39 16.4729 36.49V35.98L14.5379 36.25C13.7179 36.36 13.0979 36.55 12.6779 36.82C12.2579 37.09 12.0479 37.43 12.0479 37.84C12.0479 38.3 12.2379 38.655 12.6179 38.905C13.0079 39.155 13.4579 39.28 13.9679 39.28ZM23.9721 42.85C23.8721 42.85 23.7921 42.82 23.7321 42.76C23.6721 42.7 23.6421 42.62 23.6421 42.52V32.53C23.6421 32.43 23.6721 32.35 23.7321 32.29C23.7921 32.23 23.8721 32.2 23.9721 32.2H24.2271C24.3271 32.2 24.4071 32.23 24.4671 32.29C24.5271 32.35 24.5571 32.43 24.5571 32.53V33.235C25.1371 32.445 25.9771 32.05 27.0771 32.05C28.1571 32.05 28.9521 32.395 29.4621 33.085C29.9821 33.765 30.2571 34.605 30.2871 35.605C30.2971 35.705 30.3021 35.87 30.3021 36.1C30.3021 36.33 30.2971 36.495 30.2871 36.595C30.2571 37.595 29.9821 38.44 29.4621 39.13C28.9521 39.81 28.1571 40.15 27.0771 40.15C25.9871 40.15 25.1471 39.755 24.5571 38.965V42.52C24.5571 42.62 24.5271 42.7 24.4671 42.76C24.4071 42.82 24.3271 42.85 24.2271 42.85H23.9721ZM26.9871 39.28C27.7971 39.28 28.3871 39.025 28.7571 38.515C29.1371 37.995 29.3421 37.33 29.3721 36.52C29.3821 36.42 29.3871 36.28 29.3871 36.1C29.3871 35.17 29.2071 34.41 28.8471 33.82C28.4871 33.22 27.8671 32.92 26.9871 32.92C26.1971 32.92 25.6021 33.185 25.2021 33.715C24.8021 34.235 24.5871 34.85 24.5571 35.56L24.5421 36.145L24.5571 36.73C24.5671 37.16 24.6621 37.57 24.8421 37.96C25.0221 38.34 25.2921 38.655 25.6521 38.905C26.0121 39.155 26.4571 39.28 26.9871 39.28ZM31.6279 41.26C31.5479 41.26 31.4779 41.23 31.4179 41.17C31.3579 41.11 31.3279 41.04 31.3279 40.96C31.3279 40.92 31.3429 40.86 31.3729 40.78L36.5329 28.435C36.5529 28.385 36.5879 28.335 36.6379 28.285C36.6979 28.235 36.7729 28.21 36.8629 28.21H37.1179C37.1979 28.21 37.2679 28.24 37.3279 28.3C37.3879 28.36 37.4179 28.43 37.4179 28.51C37.4179 28.55 37.4029 28.61 37.3729 28.69L32.2129 41.035C32.1929 41.085 32.1529 41.135 32.0929 41.185C32.0429 41.235 31.9729 41.26 31.8829 41.26H31.6279ZM41.2891 40.15C40.2491 40.15 39.4441 39.85 38.8741 39.25C38.3041 38.64 38.0041 37.79 37.9741 36.7L37.9591 36.1L37.9741 35.5C38.0041 34.41 38.3041 33.565 38.8741 32.965C39.4441 32.355 40.2491 32.05 41.2891 32.05C41.9491 32.05 42.5091 32.17 42.9691 32.41C43.4391 32.64 43.7891 32.94 44.0191 33.31C44.2491 33.67 44.3741 34.045 44.3941 34.435C44.4041 34.525 44.3741 34.605 44.3041 34.675C44.2341 34.735 44.1541 34.765 44.0641 34.765H43.8541C43.7541 34.765 43.6791 34.745 43.6291 34.705C43.5891 34.655 43.5441 34.57 43.4941 34.45C43.2941 33.9 43.0141 33.51 42.6541 33.28C42.2941 33.04 41.8391 32.92 41.2891 32.92C40.5691 32.92 39.9941 33.14 39.5641 33.58C39.1441 34.01 38.9191 34.675 38.8891 35.575L38.8741 36.1L38.8891 36.625C38.9191 37.525 39.1441 38.195 39.5641 38.635C39.9941 39.065 40.5691 39.28 41.2891 39.28C41.8391 39.28 42.2941 39.165 42.6541 38.935C43.0141 38.695 43.2941 38.3 43.4941 37.75C43.5441 37.63 43.5891 37.55 43.6291 37.51C43.6791 37.46 43.7541 37.435 43.8541 37.435H44.0641C44.1541 37.435 44.2341 37.47 44.3041 37.54C44.3741 37.6 44.4041 37.675 44.3941 37.765C44.3741 38.155 44.2491 38.535 44.0191 38.905C43.7891 39.265 43.4391 39.565 42.9691 39.805C42.5091 40.035 41.9491 40.15 41.2891 40.15Z" fill="#444444"/>
</svg>
