<svg width="51" height="44" viewBox="0 0 51 44" fill="none" xmlns="http://www.w3.org/2000/svg">
<path d="M36.7031 1.5H14.25C12.9844 1.5 12 2.53125 12 3.75V20.25C12 21.5156 12.9844 22.5 14.25 22.5H36.7031C37.9688 22.5 39 21.5156 39 20.25V3.75C39 2.53125 37.9688 1.5 36.7031 1.5ZM14.5312 3.75H36.4219C36.6094 3.75 36.7031 3.89062 36.7031 4.03125V6H14.25V4.03125C14.25 3.89062 14.3438 3.75 14.5312 3.75ZM36.4219 20.25H14.5312C14.3438 20.25 14.25 20.1562 14.25 19.9688V12H36.7031V19.9688C36.7031 20.1562 36.6094 20.25 36.4219 20.25ZM21 15.5625C21 15.2812 20.7188 15 20.4375 15H17.0625C16.7344 15 16.5 15.2812 16.5 15.5625V17.4375C16.5 17.7656 16.7344 18 17.0625 18H20.4375C20.7188 18 21 17.7656 21 17.4375V15.5625ZM30 15.5625C30 15.2812 29.7188 15 29.4375 15H23.0625C22.7344 15 22.5 15.2812 22.5 15.5625V17.4375C22.5 17.7656 22.7344 18 23.0625 18H29.4375C29.7188 18 30 17.7656 30 17.4375V15.5625Z" fill="#4BB45E"/>
<path d="M8.505 39.475C8.525 39.505 8.535 39.56 8.535 39.64C8.535 39.74 8.5 39.825 8.43 39.895C8.37 39.965 8.29 40 8.19 40H7.935C7.785 40 7.67 39.935 7.59 39.805L4.44 35.125H2.355V39.67C2.355 39.77 2.32 39.85 2.25 39.91C2.19 39.97 2.11 40 2.01 40H1.74C1.64 40 1.56 39.97 1.5 39.91C1.44 39.85 1.41 39.77 1.41 39.67V29.845C1.41 29.745 1.44 29.665 1.5 29.605C1.56 29.535 1.64 29.5 1.74 29.5H2.01C2.12 29.5 2.205 29.53 2.265 29.59C2.325 29.65 2.355 29.735 2.355 29.845V34.225L4.38 34.24L7.245 29.725C7.355 29.575 7.52 29.5 7.74 29.5H7.98C8.18 29.5 8.28 29.6 8.28 29.8C8.28 29.85 8.255 29.915 8.205 29.995L5.28 34.6L8.505 39.475ZM12.5289 40.15C12.0489 40.15 11.6039 40.05 11.1939 39.85C10.7839 39.65 10.4539 39.38 10.2039 39.04C9.96387 38.7 9.84387 38.325 9.84387 37.915C9.84387 37.255 10.1089 36.715 10.6389 36.295C11.1789 35.875 11.9039 35.605 12.8139 35.485L15.1839 35.155V34.63C15.1839 34.08 15.0139 33.66 14.6739 33.37C14.3439 33.07 13.8339 32.92 13.1439 32.92C12.6339 32.92 12.2139 33.02 11.8839 33.22C11.5639 33.42 11.3589 33.66 11.2689 33.94C11.2289 34.06 11.1789 34.145 11.1189 34.195C11.0689 34.235 10.9989 34.255 10.9089 34.255H10.6989C10.6089 34.255 10.5289 34.225 10.4589 34.165C10.3989 34.095 10.3689 34.015 10.3689 33.925C10.3689 33.705 10.4689 33.45 10.6689 33.16C10.8689 32.86 11.1789 32.6 11.5989 32.38C12.0189 32.16 12.5339 32.05 13.1439 32.05C14.2139 32.05 14.9739 32.305 15.4239 32.815C15.8739 33.325 16.0989 33.945 16.0989 34.675V39.67C16.0989 39.77 16.0689 39.85 16.0089 39.91C15.9489 39.97 15.8689 40 15.7689 40H15.5139C15.4139 40 15.3339 39.97 15.2739 39.91C15.2139 39.85 15.1839 39.77 15.1839 39.67V38.965C14.9639 39.295 14.6389 39.575 14.2089 39.805C13.7889 40.035 13.2289 40.15 12.5289 40.15ZM12.6789 39.28C13.4089 39.28 14.0089 39.04 14.4789 38.56C14.9489 38.08 15.1839 37.39 15.1839 36.49V35.98L13.2489 36.25C12.4289 36.36 11.8089 36.55 11.3889 36.82C10.9689 37.09 10.7589 37.43 10.7589 37.84C10.7589 38.3 10.9489 38.655 11.3289 38.905C11.7189 39.155 12.1689 39.28 12.6789 39.28ZM18.8159 42.85C18.7159 42.85 18.6359 42.82 18.5759 42.76C18.5159 42.7 18.4859 42.62 18.4859 42.52V32.53C18.4859 32.43 18.5159 32.35 18.5759 32.29C18.6359 32.23 18.7159 32.2 18.8159 32.2H19.0709C19.1709 32.2 19.2509 32.23 19.3109 32.29C19.3709 32.35 19.4009 32.43 19.4009 32.53V33.235C19.9809 32.445 20.8209 32.05 21.9209 32.05C23.0009 32.05 23.7959 32.395 24.3059 33.085C24.8259 33.765 25.1009 34.605 25.1309 35.605C25.1409 35.705 25.1459 35.87 25.1459 36.1C25.1459 36.33 25.1409 36.495 25.1309 36.595C25.1009 37.595 24.8259 38.44 24.3059 39.13C23.7959 39.81 23.0009 40.15 21.9209 40.15C20.8309 40.15 19.9909 39.755 19.4009 38.965V42.52C19.4009 42.62 19.3709 42.7 19.3109 42.76C19.2509 42.82 19.1709 42.85 19.0709 42.85H18.8159ZM21.8309 39.28C22.6409 39.28 23.2309 39.025 23.6009 38.515C23.9809 37.995 24.1859 37.33 24.2159 36.52C24.2259 36.42 24.2309 36.28 24.2309 36.1C24.2309 35.17 24.0509 34.41 23.6909 33.82C23.3309 33.22 22.7109 32.92 21.8309 32.92C21.0409 32.92 20.4459 33.185 20.0459 33.715C19.6459 34.235 19.4309 34.85 19.4009 35.56L19.3859 36.145L19.4009 36.73C19.4109 37.16 19.5059 37.57 19.6859 37.96C19.8659 38.34 20.1359 38.655 20.4959 38.905C20.8559 39.155 21.3009 39.28 21.8309 39.28ZM29.5717 40C29.4717 40 29.3917 39.97 29.3317 39.91C29.2717 39.85 29.2417 39.77 29.2417 39.67V33.07H26.4967C26.3967 33.07 26.3167 33.04 26.2567 32.98C26.1967 32.92 26.1667 32.84 26.1667 32.74V32.53C26.1667 32.43 26.1967 32.35 26.2567 32.29C26.3167 32.23 26.3967 32.2 26.4967 32.2H32.9017C33.0017 32.2 33.0817 32.23 33.1417 32.29C33.2017 32.35 33.2317 32.43 33.2317 32.53V32.74C33.2317 32.84 33.2017 32.92 33.1417 32.98C33.0817 33.04 33.0017 33.07 32.9017 33.07H30.1567V39.67C30.1567 39.77 30.1267 39.85 30.0667 39.91C30.0067 39.97 29.9267 40 29.8267 40H29.5717ZM37.6127 40.15C36.5727 40.15 35.7627 39.835 35.1827 39.205C34.6127 38.565 34.3127 37.74 34.2827 36.73L34.2677 36.1L34.2827 35.47C34.3127 34.46 34.6127 33.64 35.1827 33.01C35.7627 32.37 36.5727 32.05 37.6127 32.05C38.6527 32.05 39.4577 32.37 40.0277 33.01C40.6077 33.64 40.9127 34.46 40.9427 35.47C40.9527 35.57 40.9577 35.78 40.9577 36.1C40.9577 36.42 40.9527 36.63 40.9427 36.73C40.9127 37.74 40.6077 38.565 40.0277 39.205C39.4577 39.835 38.6527 40.15 37.6127 40.15ZM37.6127 39.28C38.3227 39.28 38.8927 39.055 39.3227 38.605C39.7627 38.145 39.9977 37.495 40.0277 36.655C40.0377 36.555 40.0427 36.37 40.0427 36.1C40.0427 35.83 40.0377 35.645 40.0277 35.545C39.9977 34.705 39.7627 34.06 39.3227 33.61C38.8927 33.15 38.3227 32.92 37.6127 32.92C36.9027 32.92 36.3277 33.15 35.8877 33.61C35.4577 34.06 35.2277 34.705 35.1977 35.545L35.1827 36.1L35.1977 36.655C35.2277 37.495 35.4577 38.145 35.8877 38.605C36.3277 39.055 36.9027 39.28 37.6127 39.28ZM49.217 32.2C49.297 32.2 49.367 32.23 49.427 32.29C49.487 32.35 49.517 32.415 49.517 32.485V39.67C49.517 39.77 49.487 39.85 49.427 39.91C49.367 39.97 49.287 40 49.187 40H48.932C48.832 40 48.752 39.97 48.692 39.91C48.632 39.85 48.602 39.77 48.602 39.67V33.73L43.982 39.775C43.872 39.925 43.742 40 43.592 40H43.307C43.227 40 43.157 39.97 43.097 39.91C43.037 39.85 43.007 39.78 43.007 39.7V32.53C43.007 32.43 43.037 32.35 43.097 32.29C43.157 32.23 43.237 32.2 43.337 32.2H43.592C43.692 32.2 43.772 32.23 43.832 32.29C43.892 32.35 43.922 32.43 43.922 32.53V38.47L48.542 32.425C48.652 32.275 48.782 32.2 48.932 32.2H49.217ZM46.262 31.15C45.492 31.15 44.947 30.985 44.627 30.655C44.317 30.325 44.162 29.91 44.162 29.41C44.162 29.33 44.187 29.265 44.237 29.215C44.287 29.155 44.357 29.125 44.447 29.125H44.672C44.762 29.125 44.832 29.155 44.882 29.215C44.932 29.265 44.957 29.33 44.957 29.41C44.957 29.69 45.052 29.925 45.242 30.115C45.442 30.305 45.782 30.4 46.262 30.4C46.742 30.4 47.077 30.305 47.267 30.115C47.467 29.925 47.567 29.69 47.567 29.41C47.567 29.33 47.592 29.265 47.642 29.215C47.692 29.155 47.762 29.125 47.852 29.125H48.077C48.167 29.125 48.237 29.155 48.287 29.215C48.337 29.265 48.362 29.33 48.362 29.41C48.362 29.91 48.202 30.325 47.882 30.655C47.572 30.985 47.032 31.15 46.262 31.15Z" fill="#444444"/>
</svg>
