<svg width="82" height="44" viewBox="0 0 82 44" fill="none" xmlns="http://www.w3.org/2000/svg">
<path d="M41 7.54688C38.8906 7.54688 37.25 9.5625 37.25 12.0469C37.25 14.5781 38.8906 16.5938 41 16.5938C43.0625 16.5938 44.75 14.5781 44.75 12.0469C44.75 9.5625 43.0625 7.54688 41 7.54688ZM55.1094 2.57812C53.2812 1.82812 51.4531 1.5 49.625 1.5C43.8594 1.5 38.0938 4.45312 32.3281 4.45312C30.875 4.45312 29.4219 4.26562 27.9688 3.79688C27.8281 3.75 27.6406 3.70312 27.5 3.70312C26.7031 3.70312 26 4.35938 26 5.20312V20.1094C26 20.6719 26.3281 21.2344 26.8438 21.4688C28.6719 22.2188 30.5 22.5 32.3281 22.5C38.0938 22.5 43.8594 19.5938 49.625 19.5938C51.0781 19.5938 52.5312 19.7812 53.9844 20.25C54.125 20.2969 54.3125 20.2969 54.4531 20.2969C55.25 20.2969 56 19.6875 56 18.8438V3.9375C56 3.375 55.625 2.8125 55.1094 2.57812ZM53.75 17.8125C52.4375 17.5312 51.0781 17.3438 49.625 17.3438C46.4844 17.3438 43.3906 18.1406 40.4375 18.8906C37.5781 19.5938 34.9062 20.25 32.3281 20.25C30.8281 20.25 29.4688 20.0625 28.25 19.5938V6.23438C29.5156 6.51562 30.875 6.70312 32.3281 6.70312C35.4688 6.70312 38.5625 5.90625 41.5156 5.15625C44.375 4.45312 47.0469 3.75 49.625 3.75C51.125 3.75 52.4844 3.98438 53.75 4.45312V17.8125Z" fill="#4BB45E"/>
<path d="M1.74 40C1.64 40 1.56 39.97 1.5 39.91C1.44 39.85 1.41 39.77 1.41 39.67V29.845C1.41 29.745 1.44 29.665 1.5 29.605C1.56 29.535 1.64 29.5 1.74 29.5H2.01C2.12 29.5 2.205 29.53 2.265 29.59C2.325 29.65 2.355 29.735 2.355 29.845V34.225H8.145V29.845C8.145 29.745 8.175 29.665 8.235 29.605C8.295 29.535 8.375 29.5 8.475 29.5H8.745C8.855 29.5 8.94 29.53 9 29.59C9.06 29.65 9.09 29.735 9.09 29.845V39.67C9.09 39.77 9.055 39.85 8.985 39.91C8.925 39.97 8.845 40 8.745 40H8.475C8.375 40 8.295 39.97 8.235 39.91C8.175 39.85 8.145 39.77 8.145 39.67V35.125H2.355V39.67C2.355 39.77 2.32 39.85 2.25 39.91C2.19 39.97 2.11 40 2.01 40H1.74ZM13.8179 40.15C13.3379 40.15 12.8929 40.05 12.4829 39.85C12.0729 39.65 11.7429 39.38 11.4929 39.04C11.2529 38.7 11.1329 38.325 11.1329 37.915C11.1329 37.255 11.3979 36.715 11.9279 36.295C12.4679 35.875 13.1929 35.605 14.1029 35.485L16.4729 35.155V34.63C16.4729 34.08 16.3029 33.66 15.9629 33.37C15.6329 33.07 15.1229 32.92 14.4329 32.92C13.9229 32.92 13.5029 33.02 13.1729 33.22C12.8529 33.42 12.6479 33.66 12.5579 33.94C12.5179 34.06 12.4679 34.145 12.4079 34.195C12.3579 34.235 12.2879 34.255 12.1979 34.255H11.9879C11.8979 34.255 11.8179 34.225 11.7479 34.165C11.6879 34.095 11.6579 34.015 11.6579 33.925C11.6579 33.705 11.7579 33.45 11.9579 33.16C12.1579 32.86 12.4679 32.6 12.8879 32.38C13.3079 32.16 13.8229 32.05 14.4329 32.05C15.5029 32.05 16.2629 32.305 16.7129 32.815C17.1629 33.325 17.3879 33.945 17.3879 34.675V39.67C17.3879 39.77 17.3579 39.85 17.2979 39.91C17.2379 39.97 17.1579 40 17.0579 40H16.8029C16.7029 40 16.6229 39.97 16.5629 39.91C16.5029 39.85 16.4729 39.77 16.4729 39.67V38.965C16.2529 39.295 15.9279 39.575 15.4979 39.805C15.0779 40.035 14.5179 40.15 13.8179 40.15ZM13.9679 39.28C14.6979 39.28 15.2979 39.04 15.7679 38.56C16.2379 38.08 16.4729 37.39 16.4729 36.49V35.98L14.5379 36.25C13.7179 36.36 13.0979 36.55 12.6779 36.82C12.2579 37.09 12.0479 37.43 12.0479 37.84C12.0479 38.3 12.2379 38.655 12.6179 38.905C13.0079 39.155 13.4579 39.28 13.9679 39.28ZM19.2649 40C19.1649 40 19.0799 39.97 19.0099 39.91C18.9499 39.84 18.9199 39.755 18.9199 39.655V39.415C18.9199 39.325 18.9449 39.25 18.9949 39.19C19.0549 39.13 19.1299 39.1 19.2199 39.1C19.7299 39.1 20.1199 38.73 20.3899 37.99C20.6599 37.25 20.7949 36.045 20.7949 34.375V32.53C20.7949 32.43 20.8249 32.35 20.8849 32.29C20.9449 32.23 21.0249 32.2 21.1249 32.2H25.4149C25.5149 32.2 25.5949 32.23 25.6549 32.29C25.7149 32.35 25.7449 32.43 25.7449 32.53V39.67C25.7449 39.77 25.7149 39.85 25.6549 39.91C25.5949 39.97 25.5149 40 25.4149 40H25.1599C25.0599 40 24.9799 39.97 24.9199 39.91C24.8599 39.85 24.8299 39.77 24.8299 39.67V33.07H21.7099V34.48C21.7099 38.16 20.8949 40 19.2649 40ZM34.3781 32.2C34.4581 32.2 34.5281 32.23 34.5881 32.29C34.6481 32.35 34.6781 32.415 34.6781 32.485V39.67C34.6781 39.77 34.6481 39.85 34.5881 39.91C34.5281 39.97 34.4481 40 34.3481 40H34.0931C33.9931 40 33.9131 39.97 33.8531 39.91C33.7931 39.85 33.7631 39.77 33.7631 39.67V33.73L29.1431 39.775C29.0331 39.925 28.9031 40 28.7531 40H28.4681C28.3881 40 28.3181 39.97 28.2581 39.91C28.1981 39.85 28.1681 39.78 28.1681 39.7V32.53C28.1681 32.43 28.1981 32.35 28.2581 32.29C28.3181 32.23 28.3981 32.2 28.4981 32.2H28.7531C28.8531 32.2 28.9331 32.23 28.9931 32.29C29.0531 32.35 29.0831 32.43 29.0831 32.53V38.47L33.7031 32.425C33.8131 32.275 33.9431 32.2 34.0931 32.2H34.3781ZM41.9937 40C41.8937 40 41.8137 39.97 41.7537 39.91C41.6937 39.85 41.6637 39.77 41.6637 39.67V36.61C41.3837 36.89 41.0437 37.095 40.6437 37.225C40.2537 37.345 39.7937 37.405 39.2637 37.405C37.4637 37.405 36.5637 36.66 36.5637 35.17V32.53C36.5637 32.43 36.5937 32.35 36.6537 32.29C36.7137 32.23 36.7937 32.2 36.8937 32.2H37.1487C37.2487 32.2 37.3287 32.23 37.3887 32.29C37.4487 32.35 37.4787 32.43 37.4787 32.53V35.095C37.4787 35.585 37.6287 35.95 37.9287 36.19C38.2287 36.42 38.6937 36.535 39.3237 36.535C40.0837 36.535 40.6637 36.445 41.0637 36.265C41.4637 36.075 41.6637 35.765 41.6637 35.335V32.53C41.6637 32.43 41.6937 32.35 41.7537 32.29C41.8137 32.23 41.8937 32.2 41.9937 32.2H42.2487C42.3487 32.2 42.4287 32.23 42.4887 32.29C42.5487 32.35 42.5787 32.43 42.5787 32.53V39.67C42.5787 39.77 42.5487 39.85 42.4887 39.91C42.4287 39.97 42.3487 40 42.2487 40H41.9937ZM45.3438 40C45.2438 40 45.1638 39.97 45.1038 39.91C45.0438 39.85 45.0138 39.77 45.0138 39.67V32.53C45.0138 32.43 45.0438 32.35 45.1038 32.29C45.1638 32.23 45.2438 32.2 45.3438 32.2H45.5988C45.6988 32.2 45.7788 32.23 45.8388 32.29C45.8988 32.35 45.9288 32.43 45.9288 32.53V35.575H50.6088V32.53C50.6088 32.43 50.6388 32.35 50.6988 32.29C50.7588 32.23 50.8388 32.2 50.9388 32.2H51.1938C51.2938 32.2 51.3738 32.23 51.4338 32.29C51.4938 32.35 51.5238 32.43 51.5238 32.53V39.67C51.5238 39.77 51.4938 39.85 51.4338 39.91C51.3738 39.97 51.2938 40 51.1938 40H50.9388C50.8388 40 50.7588 39.97 50.6988 39.91C50.6388 39.85 50.6088 39.77 50.6088 39.67V36.445H45.9288V39.67C45.9288 39.77 45.8988 39.85 45.8388 39.91C45.7788 39.97 45.6988 40 45.5988 40H45.3438ZM54.2794 40C54.1794 40 54.0994 39.97 54.0394 39.91C53.9794 39.85 53.9494 39.77 53.9494 39.67V32.53C53.9494 32.43 53.9794 32.35 54.0394 32.29C54.0994 32.23 54.1794 32.2 54.2794 32.2H54.5344C54.6344 32.2 54.7144 32.23 54.7744 32.29C54.8344 32.35 54.8644 32.43 54.8644 32.53V34.81H56.5144C58.4044 34.81 59.3494 35.695 59.3494 37.465C59.3494 38.345 59.0994 38.99 58.5994 39.4C58.1094 39.8 57.3394 40 56.2894 40H54.2794ZM60.8194 40C60.7194 40 60.6394 39.97 60.5794 39.91C60.5194 39.85 60.4894 39.77 60.4894 39.67V32.53C60.4894 32.43 60.5194 32.35 60.5794 32.29C60.6394 32.23 60.7194 32.2 60.8194 32.2H61.0744C61.1744 32.2 61.2544 32.23 61.3144 32.29C61.3744 32.35 61.4044 32.43 61.4044 32.53V39.67C61.4044 39.77 61.3744 39.85 61.3144 39.91C61.2544 39.97 61.1744 40 61.0744 40H60.8194ZM56.4244 39.13C57.1344 39.13 57.6444 39.005 57.9544 38.755C58.2744 38.505 58.4344 38.075 58.4344 37.465C58.4344 36.855 58.2744 36.405 57.9544 36.115C57.6444 35.825 57.1344 35.68 56.4244 35.68H54.8644V39.13H56.4244ZM71.0671 32.2C71.1471 32.2 71.2171 32.23 71.2771 32.29C71.3371 32.35 71.3671 32.415 71.3671 32.485V39.67C71.3671 39.77 71.3371 39.85 71.2771 39.91C71.2171 39.97 71.1371 40 71.0371 40H70.7821C70.6821 40 70.6021 39.97 70.5421 39.91C70.4821 39.85 70.4521 39.77 70.4521 39.67V34.06L68.2621 38.305C68.1821 38.445 68.1071 38.55 68.0371 38.62C67.9771 38.69 67.8821 38.725 67.7521 38.725H67.4521C67.3221 38.725 67.2221 38.69 67.1521 38.62C67.0921 38.55 67.0221 38.445 66.9421 38.305L64.7521 34.18V39.67C64.7521 39.77 64.7221 39.85 64.6621 39.91C64.6021 39.97 64.5221 40 64.4221 40H64.1671C64.0671 40 63.9871 39.97 63.9271 39.91C63.8671 39.85 63.8371 39.77 63.8371 39.67V32.485C63.8371 32.415 63.8671 32.35 63.9271 32.29C63.9871 32.23 64.0571 32.2 64.1371 32.2H64.4821C64.6321 32.2 64.7471 32.275 64.8271 32.425L67.6021 37.675L70.3771 32.425C70.4571 32.275 70.5721 32.2 70.7221 32.2H71.0671ZM80.008 32.2C80.088 32.2 80.158 32.23 80.218 32.29C80.278 32.35 80.308 32.415 80.308 32.485V39.67C80.308 39.77 80.278 39.85 80.218 39.91C80.158 39.97 80.078 40 79.978 40H79.723C79.623 40 79.543 39.97 79.483 39.91C79.423 39.85 79.393 39.77 79.393 39.67V33.73L74.773 39.775C74.663 39.925 74.533 40 74.383 40H74.098C74.018 40 73.948 39.97 73.888 39.91C73.828 39.85 73.798 39.78 73.798 39.7V32.53C73.798 32.43 73.828 32.35 73.888 32.29C73.948 32.23 74.028 32.2 74.128 32.2H74.383C74.483 32.2 74.563 32.23 74.623 32.29C74.683 32.35 74.713 32.43 74.713 32.53V38.47L79.333 32.425C79.443 32.275 79.573 32.2 79.723 32.2H80.008Z" fill="#444444"/>
</svg>
